HIERARCHY
ROOT newVegas:Hips
{
	OFFSET 0.000000 96.479958 0.000000
	CHANNELS 6 Xposition Yposition Zposition Xrotation Yrotation Zrotation
	JOINT newVegas:Pelvis
	{
		OFFSET 0.000000 0.000000 0.000000
		CHANNELS 3 Xrotation Yrotation Zrotation
		JOINT newVegas:LeftUpLeg
		{
			OFFSET 18.735201 -5.666702 -4.541200
			CHANNELS 3 Xrotation Yrotation Zrotation
			JOINT newVegas:LeftLeg
			{
				OFFSET -0.021200 -31.938179 0.493100
				CHANNELS 3 Xrotation Yrotation Zrotation
				JOINT newVegas:LeftFoot
				{
					OFFSET 0.021200 -31.938179 -4.336299
					CHANNELS 3 Xrotation Yrotation Zrotation
					JOINT newVegas:LeftToeBase
					{
						OFFSET 0.943001 -26.722000 15.023500
						CHANNELS 3 Xrotation Yrotation Zrotation
						End Site
						{
							OFFSET 0.000000 30.670183 0.000000
						}
					}
				}
				JOINT newVegas:Left_PantLeg
				{
					OFFSET 0.663870 -9.044666 -1.108900
					CHANNELS 3 Xrotation Yrotation Zrotation
					End Site
					{
						OFFSET 1.415995 20.635357 0.000000
					}
				}
			}
		}
		JOINT newVegas:RightUpLeg
		{
			OFFSET -18.735201 -5.666702 -4.541200
			CHANNELS 3 Xrotation Yrotation Zrotation
			JOINT newVegas:RightLeg
			{
				OFFSET 0.018946 -31.938133 0.493100
				CHANNELS 3 Xrotation Yrotation Zrotation
				JOINT newVegas:RightFoot
				{
					OFFSET -0.018946 -31.938126 -4.336299
					CHANNELS 3 Xrotation Yrotation Zrotation
					JOINT newVegas:RightToeBase
					{
						OFFSET -0.943001 -26.722004 15.023500
						CHANNELS 3 Xrotation Yrotation Zrotation
						End Site
						{
							OFFSET 0.000000 30.670187 0.000000
						}
					}
				}
				JOINT newVegas:Right_PantLeg
				{
					OFFSET -0.661674 -9.044716 -1.108900
					CHANNELS 3 Xrotation Yrotation Zrotation
					End Site
					{
						OFFSET -1.415958 20.635269 0.000000
					}
				}
			}
		}
	}
	JOINT newVegas:Spine
	{
		OFFSET 0.000000 10.199997 -0.299500
		CHANNELS 3 Xrotation Yrotation Zrotation
		JOINT newVegas:Spine1
		{
			OFFSET 0.000000 11.900002 -1.516600
			CHANNELS 3 Xrotation Yrotation Zrotation
			JOINT newVegas:Spine2
			{
				OFFSET 0.000000 13.600006 -2.842500
				CHANNELS 3 Xrotation Yrotation Zrotation
				JOINT newVegas:Neck
				{
					OFFSET 0.000000 9.624100 -2.890100
					CHANNELS 3 Xrotation Yrotation Zrotation
					JOINT newVegas:Head
					{
						OFFSET 0.000000 14.068802 -1.351900
						CHANNELS 3 Xrotation Yrotation Zrotation
						JOINT newVegas:Hair_Back
						{
							OFFSET 0.000000 3.231903 -17.524799
							CHANNELS 3 Xrotation Yrotation Zrotation
							End Site
							{
								OFFSET 0.000000 19.849884 0.000000
							}
						}
						JOINT newVegas:Hair_Front
						{
							OFFSET 0.000000 31.260406 4.573800
							CHANNELS 3 Xrotation Yrotation Zrotation
							JOINT newVegas:Hair_Front1
							{
								OFFSET 0.000000 2.284103 11.993300
								CHANNELS 3 Xrotation Yrotation Zrotation
								JOINT newVegas:Hair_Front2
								{
									OFFSET 0.000000 2.284103 11.993300
									CHANNELS 3 Xrotation Yrotation Zrotation
									End Site
									{
										OFFSET 0.000000 12.208862 0.000000
									}
								}
							}
						}
						JOINT newVegas:Jowel
						{
							OFFSET 0.000000 -7.458206 6.864100
							CHANNELS 3 Xrotation Yrotation Zrotation
							End Site
							{
								OFFSET 0.000000 19.849884 0.000000
							}
						}
					}
				}
				JOINT newVegas:LeftShoulder
				{
					OFFSET 15.263000 10.923401 -0.547700
					CHANNELS 3 Xrotation Yrotation Zrotation
					JOINT newVegas:LeftArm
					{
						OFFSET 25.438599 -2.830597 -13.032500
						CHANNELS 3 Xrotation Yrotation Zrotation
						JOINT newVegas:LeftForeArm
						{
							OFFSET 29.960503 0.000000 0.000000
							CHANNELS 3 Xrotation Yrotation Zrotation
							JOINT newVegas:LeftHand
							{
								OFFSET 27.849251 0.000000 0.000000
								CHANNELS 3 Xrotation Yrotation Zrotation
								JOINT newVegas:LeftHandThumb1
								{
									OFFSET 4.487587 -3.305161 6.305391
									CHANNELS 3 Xrotation Yrotation Zrotation
									JOINT newVegas:LeftHandThumb2
									{
										OFFSET 5.480453 -3.164139 3.164143
										CHANNELS 3 Xrotation Yrotation Zrotation
										JOINT newVegas:LeftHandThumb3
										{
											OFFSET 5.159721 -2.978973 2.978967
											CHANNELS 3 Xrotation Yrotation Zrotation
											End Site
											{
												OFFSET 2.494507 5.926697 1.738678
											}
										}
									}
								}
								JOINT newVegas:LeftHandIndex1
								{
									OFFSET 18.578728 -0.527832 5.208049
									CHANNELS 3 Xrotation Yrotation Zrotation
									JOINT newVegas:LeftHandIndex2
									{
										OFFSET 3.192009 0.000000 0.000000
										CHANNELS 3 Xrotation Yrotation Zrotation
										JOINT newVegas:LeftHandIndex3
										{
											OFFSET 3.835129 0.000000 0.000000
											CHANNELS 3 Xrotation Yrotation Zrotation
											End Site
											{
												OFFSET -0.034599 3.816971 0.371180
											}
										}
									}
								}
								JOINT newVegas:LeftHandMiddle1
								{
									OFFSET 18.476105 0.000000 0.000000
									CHANNELS 3 Xrotation Yrotation Zrotation
									JOINT newVegas:LeftHandMiddle2
									{
										OFFSET 3.324875 0.000000 0.000000
										CHANNELS 3 Xrotation Yrotation Zrotation
										JOINT newVegas:LeftHandMiddle3
										{
											OFFSET 4.596550 0.000000 0.000000
											CHANNELS 3 Xrotation Yrotation Zrotation
											End Site
											{
												OFFSET 0.057701 4.578827 0.399218
											}
										}
									}
								}
								JOINT newVegas:LeftHandRing1
								{
									OFFSET 17.732719 0.121887 -4.201567
									CHANNELS 3 Xrotation Yrotation Zrotation
									JOINT newVegas:LeftHandRing2
									{
										OFFSET 2.733170 0.000000 0.000000
										CHANNELS 3 Xrotation Yrotation Zrotation
										JOINT newVegas:LeftHandRing3
										{
											OFFSET 3.178268 0.000000 0.000000
											CHANNELS 3 Xrotation Yrotation Zrotation
											End Site
											{
												OFFSET 0.119102 3.170624 0.185394
											}
										}
									}
								}
								JOINT newVegas:LeftHandPinky1
								{
									OFFSET 15.989624 -0.606689 -7.535461
									CHANNELS 3 Xrotation Yrotation Zrotation
									JOINT newVegas:LeftHandPinky2
									{
										OFFSET 2.538986 0.000000 0.000000
										CHANNELS 3 Xrotation Yrotation Zrotation
										JOINT newVegas:LeftHandPinky3
										{
											OFFSET 2.593102 0.000000 0.000000
											CHANNELS 3 Xrotation Yrotation Zrotation
											End Site
											{
												OFFSET -0.150902 2.584198 0.152708
											}
										}
									}
								}
							}
							JOINT newVegas:Left_Sleeve
							{
								OFFSET 0.267448 -0.649796 0.577675
								CHANNELS 3 Xrotation Yrotation Zrotation
								End Site
								{
									OFFSET 0.000000 15.991241 0.000000
								}
							}
							JOINT newVegas:Left_CapeC
							{
								OFFSET 15.715958 -8.608795 -6.935905
								CHANNELS 3 Xrotation Yrotation Zrotation
								JOINT newVegas:Left_CapeC1
								{
									OFFSET 0.000000 -8.688499 0.000000
									CHANNELS 3 Xrotation Yrotation Zrotation
									End Site
									{
										OFFSET 0.000000 8.688499 0.000000
									}
								}
							}
						}
						JOINT newVegas:Left_CapeB
						{
							OFFSET 26.118385 -8.608795 -7.079235
							CHANNELS 3 Xrotation Yrotation Zrotation
							JOINT newVegas:Left_CapeB1
							{
								OFFSET 0.000000 -8.688499 0.000000
								CHANNELS 3 Xrotation Yrotation Zrotation
								End Site
								{
									OFFSET 0.000000 8.688499 0.000000
								}
							}
						}
						JOINT newVegas:Left_CapeA
						{
							OFFSET 5.115639 -8.608795 -10.395809
							CHANNELS 3 Xrotation Yrotation Zrotation
							JOINT newVegas:Left_CapeA1
							{
								OFFSET 0.000000 -8.688499 0.000000
								CHANNELS 3 Xrotation Yrotation Zrotation
								End Site
								{
									OFFSET 0.000000 8.688499 0.000000
								}
							}
						}
					}
				}
				JOINT newVegas:RightShoulder
				{
					OFFSET -15.263000 10.923401 -0.547700
					CHANNELS 3 Xrotation Yrotation Zrotation
					JOINT newVegas:RightArm
					{
						OFFSET -25.438599 -2.830597 -13.032500
						CHANNELS 3 Xrotation Yrotation Zrotation
						JOINT newVegas:RightForeArm
						{
							OFFSET -29.960503 0.000000 0.000000
							CHANNELS 3 Xrotation Yrotation Zrotation
							JOINT newVegas:RightHand
							{
								OFFSET -27.849251 0.000000 0.000000
								CHANNELS 3 Xrotation Yrotation Zrotation
								JOINT newVegas:RightHandThumb1
								{
									OFFSET -4.487587 -3.305161 6.305391
									CHANNELS 3 Xrotation Yrotation Zrotation
									JOINT newVegas:RightHandThumb2
									{
										OFFSET -5.480453 -3.164139 3.164143
										CHANNELS 3 Xrotation Yrotation Zrotation
										JOINT newVegas:RightHandThumb3
										{
											OFFSET -5.159721 -2.978973 2.978967
											CHANNELS 3 Xrotation Yrotation Zrotation
											End Site
											{
												OFFSET -2.494507 5.926697 1.738678
											}
										}
									}
								}
								JOINT newVegas:RightHandIndex1
								{
									OFFSET -18.578728 -0.527832 5.208049
									CHANNELS 3 Xrotation Yrotation Zrotation
									JOINT newVegas:RightHandIndex2
									{
										OFFSET -3.192009 0.000000 0.000000
										CHANNELS 3 Xrotation Yrotation Zrotation
										JOINT newVegas:RightHandIndex3
										{
											OFFSET -3.835129 0.000000 0.000000
											CHANNELS 3 Xrotation Yrotation Zrotation
											End Site
											{
												OFFSET 0.034599 3.816971 0.371180
											}
										}
									}
								}
								JOINT newVegas:RightHandMiddle1
								{
									OFFSET -18.476105 0.000000 0.000000
									CHANNELS 3 Xrotation Yrotation Zrotation
									JOINT newVegas:RightHandMiddle2
									{
										OFFSET -3.324875 0.000000 0.000000
										CHANNELS 3 Xrotation Yrotation Zrotation
										JOINT newVegas:RightHandMiddle3
										{
											OFFSET -4.596550 0.000000 0.000000
											CHANNELS 3 Xrotation Yrotation Zrotation
											End Site
											{
												OFFSET -0.057701 4.578827 0.399218
											}
										}
									}
								}
								JOINT newVegas:RightHandRing1
								{
									OFFSET -17.732719 0.121887 -4.201567
									CHANNELS 3 Xrotation Yrotation Zrotation
									JOINT newVegas:RightHandRing2
									{
										OFFSET -2.733170 0.000000 0.000000
										CHANNELS 3 Xrotation Yrotation Zrotation
										JOINT newVegas:RightHandRing3
										{
											OFFSET -3.178268 0.000000 0.000000
											CHANNELS 3 Xrotation Yrotation Zrotation
											End Site
											{
												OFFSET -0.119102 3.170624 0.185394
											}
										}
									}
								}
								JOINT newVegas:RightHandPinky1
								{
									OFFSET -15.989624 -0.606689 -7.535461
									CHANNELS 3 Xrotation Yrotation Zrotation
									JOINT newVegas:RightHandPinky2
									{
										OFFSET -2.538986 0.000000 0.000000
										CHANNELS 3 Xrotation Yrotation Zrotation
										JOINT newVegas:RightHandPinky3
										{
											OFFSET -2.593102 0.000000 0.000000
											CHANNELS 3 Xrotation Yrotation Zrotation
											End Site
											{
												OFFSET 0.150902 2.584198 0.152708
											}
										}
									}
								}
							}
							JOINT newVegas:Right_CapeC
							{
								OFFSET -15.715958 -8.608795 -6.935905
								CHANNELS 3 Xrotation Yrotation Zrotation
								JOINT newVegas:Right_CapeC1
								{
									OFFSET 0.000000 -8.688499 0.000000
									CHANNELS 3 Xrotation Yrotation Zrotation
									End Site
									{
										OFFSET 0.000000 8.688499 0.000000
									}
								}
							}
							JOINT newVegas:Right_Sleeve
							{
								OFFSET -0.267448 -0.649994 0.577675
								CHANNELS 3 Xrotation Yrotation Zrotation
								End Site
								{
									OFFSET 0.000000 15.991302 0.000000
								}
							}
						}
						JOINT newVegas:Right_CapeA
						{
							OFFSET -5.115540 -8.608795 -10.395824
							CHANNELS 3 Xrotation Yrotation Zrotation
							JOINT newVegas:Right_CapeA1
							{
								OFFSET 0.000000 -8.688499 0.000000
								CHANNELS 3 Xrotation Yrotation Zrotation
								End Site
								{
									OFFSET 0.000000 8.688499 0.000000
								}
							}
						}
						JOINT newVegas:Right_CapeB
						{
							OFFSET -26.118187 -8.608795 -7.079266
							CHANNELS 3 Xrotation Yrotation Zrotation
							JOINT newVegas:Right_CapeB1
							{
								OFFSET 0.000000 -8.688499 0.000000
								CHANNELS 3 Xrotation Yrotation Zrotation
								End Site
								{
									OFFSET 0.000000 8.688499 0.000000
								}
							}
						}
					}
				}
				JOINT newVegas:Left_Collar
				{
					OFFSET 18.625099 8.655502 8.828100
					CHANNELS 3 Xrotation Yrotation Zrotation
					JOINT newVegas:Left_Collar1
					{
						OFFSET 14.783401 10.540405 -1.259500
						CHANNELS 3 Xrotation Yrotation Zrotation
						End Site
						{
							OFFSET 0.000000 18.199875 0.000000
						}
					}
				}
				JOINT newVegas:Collar_Back
				{
					OFFSET 0.000000 15.630707 -20.132601
					CHANNELS 3 Xrotation Yrotation Zrotation
					End Site
					{
						OFFSET 0.000000 22.523010 0.000000
					}
				}
				JOINT newVegas:Left_Peck
				{
					OFFSET 17.239599 -5.132599 25.482599
					CHANNELS 3 Xrotation Yrotation Zrotation
					End Site
					{
						OFFSET 0.000000 22.523010 0.000000
					}
				}
				JOINT newVegas:Right_Peck
				{
					OFFSET -17.239599 -5.132202 25.482599
					CHANNELS 3 Xrotation Yrotation Zrotation
					End Site
					{
						OFFSET 0.000000 22.523010 0.000000
					}
				}
				JOINT newVegas:Right_Collar
				{
					OFFSET -18.625099 8.655792 8.828100
					CHANNELS 3 Xrotation Yrotation Zrotation
					JOINT newVegas:Right_Collar1
					{
						OFFSET -14.783401 10.539993 -1.259500
						CHANNELS 3 Xrotation Yrotation Zrotation
						End Site
						{
							OFFSET 0.000000 18.199631 0.000000
						}
					}
				}
			}
		}
		JOINT newVegas:Belly
		{
			OFFSET 0.000000 -6.540398 9.014299
			CHANNELS 3 Xrotation Yrotation Zrotation
			End Site
			{
				OFFSET 0.000000 11.566666 0.000000
			}
		}
	}
	JOINT newVegas:ElvisFacialAnim_Joint
	{
		OFFSET 1.000000 -95.330101 -8.825800
		CHANNELS 3 Xrotation Yrotation Zrotation
		End Site
		{
			OFFSET 0.000000 35.315800 0.000000
		}
	}
}
MOTION
Frames: 4
Frame Time: 0.033333
132.766617 94.406181 1.503918 -18.095654 -52.244851 -12.104412 -0.000000 0.000000 0.000000 -22.914545 7.905871 2.814858 46.963868 9.915680 2.814258 2.964392 10.900830 -3.878339 0.000000 -0.000001 0.000001 0.000001 -0.000000 -0.000000 2.188342 -18.328683 -1.471477 26.385354 -9.006382 1.059480 -19.444454 -12.328906 -1.625985 -0.000000 0.000000 0.000000 0.000001 0.000001 -0.000001 22.774364 10.873746 0.326020 1.534432 0.315342 -7.413037 10.764365 -4.098614 -2.092790 0.294262 3.108535 -0.042930 0.294244 3.108547 -0.042927 0.000002 0.000000 -0.000000 0.294185 3.108538 -0.042922 0.294332 3.108541 -0.042937 -0.000001 0.000000 -0.000000 0.000002 0.000000 -0.000000 -37.566457 -4.514291 1.672682 -41.611063 -2.145951 -58.796679 -0.000003 -71.589583 -0.000011 -112.269377 2.768205 43.112045 1.345227 1.193847 2.306673 18.725228 -0.746276 8.437536 0.000001 0.000002 -0.000001 -1.883282 2.144764 -39.929129 2.969271 5.094339 -60.450733 -0.000005 -0.000001 -0.000000 0.420223 5.528076 -52.640814 3.437811 5.331778 -65.603844 -0.000002 -0.000001 0.000000 -0.114957 5.753267 -61.593321 4.425413 5.675294 -75.873915 0.000001 -0.000000 -0.000005 2.189512 7.071815 -64.905266 4.407214 5.670717 -75.690087 0.000002 -0.000003 -0.000001 -0.000001 0.000000 0.000002 -0.000001 0.000000 0.000002 -0.000001 0.000001 0.000002 -0.000001 0.000001 -0.000001 -0.000001 0.000002 -0.000001 -0.000001 0.000001 -0.000001 -0.000001 0.000000 -0.000000 -41.123131 -8.863413 -9.815189 -46.145267 47.686287 114.699681 -0.000390 96.688137 0.000360 -45.282645 -23.466986 -19.279302 8.403923 -4.959711 11.023961 21.602106 -18.172280 -18.433504 -0.000001 0.000001 0.000001 -1.084717 1.351345 15.136884 1.422352 -3.352161 45.973996 0.000000 -0.000000 -0.000000 3.367251 -7.154110 51.562126 6.294786 -4.360322 110.608343 0.000000 0.000000 0.000001 -3.395784 -2.563469 56.965222 5.441366 -4.590796 99.704465 0.000001 0.000001 -0.000002 -4.036435 -3.275283 64.528431 4.060667 -4.618871 82.633247 -0.000001 -0.000000 -0.000000 -0.000001 0.000003 0.000000 -0.000001 -0.000000 0.000001 -0.000001 0.000003 0.000000 0.000000 -0.000001 0.000000 0.000000 0.000000 0.000000 0.000000 -0.000001 0.000000 0.000000 -0.000000 0.000001 0.000001 0.000001 -0.000000 0.000001 0.000001 -0.000000 0.000001 0.000001 -0.000000 0.000001 0.000001 -0.000000 0.000001 0.000001 -0.000000 0.000001 0.000001 -0.000000 0.000001 0.000001 -0.000000 -0.000001 0.000001 0.000001 -0.000000 0.000000 0.000000 
137.121216 94.627396 1.945134 -16.800659 -51.639874 -11.072294 -0.000000 -0.000000 -0.000000 -21.028693 8.254243 4.796327 47.628436 10.191821 5.362058 -0.123174 9.462315 0.585280 0.000000 -0.000002 -0.000001 0.000001 0.000000 -0.000000 -3.182916 -17.869785 -4.407601 28.171055 -9.850203 0.694848 -16.066961 -11.910283 0.149607 0.000000 -0.000000 0.000000 -0.000001 0.000000 -0.000001 21.553401 10.239966 -0.201180 1.667530 0.221667 -7.499124 10.890677 -4.207208 -2.147398 0.160362 2.999855 0.240073 0.160368 2.999843 0.240073 0.000000 -0.000000 -0.000000 0.160454 2.999831 0.240074 0.160369 2.999931 0.240053 0.000000 -0.000000 0.000000 0.000000 -0.000000 -0.000000 -37.565170 -4.847903 1.578448 -41.611206 -1.935675 -58.303922 0.000036 -71.600217 0.000051 -112.994483 2.945736 42.706605 1.567995 0.456389 2.719338 19.473195 -1.474915 7.636916 -0.000000 -0.000002 -0.000001 -1.882821 2.129424 -39.817021 2.947099 5.081741 -60.200516 0.000003 -0.000002 0.000000 0.405914 5.507030 -52.453172 3.387143 5.308616 -65.057470 -0.000004 0.000001 -0.000001 -0.074624 5.736328 -61.057274 4.422096 5.674458 -75.840406 0.000000 -0.000004 -0.000001 2.216821 7.072495 -64.435445 4.422608 5.674580 -75.845788 -0.000002 -0.000007 0.000001 -0.000001 -0.000003 -0.000000 -0.000001 -0.000003 -0.000000 -0.000001 -0.000003 -0.000001 -0.000001 -0.000002 0.000000 -0.000001 -0.000003 -0.000000 -0.000001 -0.000002 0.000000 -0.000001 -0.000003 0.000001 -41.176294 -8.605655 -9.942314 -46.737014 47.992000 114.863756 -0.000634 96.778931 0.000570 -45.113287 -23.235375 -20.190661 8.382824 -4.902050 11.022089 21.620195 -18.183922 -18.379197 -0.000002 -0.000000 0.000003 -1.101435 1.407132 15.159526 1.422382 -3.352188 45.974236 0.000000 -0.000000 -0.000003 3.413057 -7.186254 51.650259 6.296781 -4.359582 110.634673 0.000000 0.000000 -0.000000 -3.349046 -2.600412 57.010571 5.441361 -4.590810 99.704479 0.000001 -0.000001 -0.000002 -3.996439 -3.303971 64.593878 4.058874 -4.618639 82.611186 -0.000001 0.000000 -0.000003 -0.000000 0.000001 0.000002 0.000000 0.000001 0.000001 -0.000000 0.000001 0.000002 0.000002 0.000000 -0.000002 0.000002 0.000001 0.000000 0.000002 0.000000 -0.000002 0.000002 -0.000000 0.000001 -0.000000 0.000001 -0.000000 -0.000000 0.000001 -0.000000 -0.000000 0.000001 -0.000000 -0.000000 0.000001 -0.000000 -0.000000 0.000001 -0.000000 -0.000000 0.000001 -0.000000 -0.000000 0.000001 -0.000000 0.000000 -0.000003 0.000000 -0.000000 -0.000000 -0.000000 
137.121216 94.627396 1.945134 -16.800659 -51.639874 -11.072294 -0.000000 -0.000000 -0.000000 -21.028693 8.254243 4.796327 47.628436 10.191821 5.362058 -0.123174 9.462315 0.585280 0.000000 -0.000002 -0.000001 0.000001 0.000000 -0.000000 -3.182916 -17.869785 -4.407601 28.171055 -9.850203 0.694848 -16.066961 -11.910283 0.149607 0.000000 -0.000000 0.000000 -0.000001 0.000000 -0.000001 21.553401 10.239966 -0.201180 1.667530 0.221667 -7.499124 10.890677 -4.207208 -2.147398 0.160362 2.999855 0.240073 0.160368 2.999843 0.240073 0.000000 -0.000000 -0.000000 0.160454 2.999831 0.240074 0.160369 2.999931 0.240053 0.000000 -0.000000 0.000000 0.000000 -0.000000 -0.000000 -37.565170 -4.847903 1.578448 -41.611206 -1.935675 -58.303922 0.000036 -71.600217 0.000051 -112.994483 2.945736 42.706605 1.567995 0.456389 2.719338 19.473195 -1.474915 7.636916 -0.000000 -0.000002 -0.000001 -1.882821 2.129424 -39.817021 2.947099 5.081741 -60.200516 0.000003 -0.000002 0.000000 0.405914 5.507030 -52.453172 3.387143 5.308616 -65.057470 -0.000004 0.000001 -0.000001 -0.074624 5.736328 -61.057274 4.422096 5.674458 -75.840406 0.000000 -0.000004 -0.000001 2.216821 7.072495 -64.435445 4.422608 5.674580 -75.845788 -0.000002 -0.000007 0.000001 -0.000001 -0.000003 -0.000000 -0.000001 -0.000003 -0.000000 -0.000001 -0.000003 -0.000001 -0.000001 -0.000002 0.000000 -0.000001 -0.000003 -0.000000 -0.000001 -0.000002 0.000000 -0.000001 -0.000003 0.000001 -41.176294 -8.605655 -9.942314 -46.737014 47.992000 114.863756 -0.000634 96.778931 0.000570 -45.113287 -23.235375 -20.190661 8.382824 -4.902050 11.022089 21.620195 -18.183922 -18.379197 -0.000002 -0.000000 0.000003 -1.101435 1.407132 15.159526 1.422382 -3.352188 45.974236 0.000000 -0.000000 -0.000003 3.413057 -7.186254 51.650259 6.296781 -4.359582 110.634673 0.000000 0.000000 -0.000000 -3.349046 -2.600412 57.010571 5.441361 -4.590810 99.704479 0.000001 -0.000001 -0.000002 -3.996439 -3.303971 64.593878 4.058874 -4.618639 82.611186 -0.000001 0.000000 -0.000003 -0.000000 0.000001 0.000002 0.000000 0.000001 0.000001 -0.000000 0.000001 0.000002 0.000002 0.000000 -0.000002 0.000002 0.000001 0.000000 0.000002 0.000000 -0.000002 0.000002 -0.000000 0.000001 -0.000000 0.000001 -0.000000 -0.000000 0.000001 -0.000000 -0.000000 0.000001 -0.000000 -0.000000 0.000001 -0.000000 -0.000000 0.000001 -0.000000 -0.000000 0.000001 -0.000000 -0.000000 0.000001 -0.000000 0.000000 -0.000003 0.000000 -0.000000 -0.000000 -0.000000 
137.121216 94.627396 1.945134 -16.800659 -51.639874 -11.072294 -0.000000 -0.000000 -0.000000 -21.028693 8.254243 4.796327 47.628436 10.191821 5.362058 -0.123174 9.462315 0.585280 0.000000 -0.000002 -0.000001 0.000001 0.000000 -0.000000 -3.182916 -17.869785 -4.407601 28.171055 -9.850203 0.694848 -16.066961 -11.910283 0.149607 0.000000 -0.000000 0.000000 -0.000001 0.000000 -0.000001 21.553401 10.239966 -0.201180 1.667530 0.221667 -7.499124 10.890677 -4.207208 -2.147398 0.160362 2.999855 0.240073 0.160368 2.999843 0.240073 0.000000 -0.000000 -0.000000 0.160454 2.999831 0.240074 0.160369 2.999931 0.240053 0.000000 -0.000000 0.000000 0.000000 -0.000000 -0.000000 -37.565170 -4.847903 1.578448 -41.611206 -1.935675 -58.303922 0.000036 -71.600217 0.000051 -112.994483 2.945736 42.706605 1.567995 0.456389 2.719338 19.473195 -1.474915 7.636916 -0.000000 -0.000002 -0.000001 -1.882821 2.129424 -39.817021 2.947099 5.081741 -60.200516 0.000003 -0.000002 0.000000 0.405914 5.507030 -52.453172 3.387143 5.308616 -65.057470 -0.000004 0.000001 -0.000001 -0.074624 5.736328 -61.057274 4.422096 5.674458 -75.840406 0.000000 -0.000004 -0.000001 2.216821 7.072495 -64.435445 4.422608 5.674580 -75.845788 -0.000002 -0.000007 0.000001 -0.000001 -0.000003 -0.000000 -0.000001 -0.000003 -0.000000 -0.000001 -0.000003 -0.000001 -0.000001 -0.000002 0.000000 -0.000001 -0.000003 -0.000000 -0.000001 -0.000002 0.000000 -0.000001 -0.000003 0.000001 -41.176294 -8.605655 -9.942314 -46.737014 47.992000 114.863756 -0.000634 96.778931 0.000570 -45.113287 -23.235375 -20.190661 8.382824 -4.902050 11.022089 21.620195 -18.183922 -18.379197 -0.000002 -0.000000 0.000003 -1.101435 1.407132 15.159526 1.422382 -3.352188 45.974236 0.000000 -0.000000 -0.000003 3.413057 -7.186254 51.650259 6.296781 -4.359582 110.634673 0.000000 0.000000 -0.000000 -3.349046 -2.600412 57.010571 5.441361 -4.590810 99.704479 0.000001 -0.000001 -0.000002 -3.996439 -3.303971 64.593878 4.058874 -4.618639 82.611186 -0.000001 0.000000 -0.000003 -0.000000 0.000001 0.000002 0.000000 0.000001 0.000001 -0.000000 0.000001 0.000002 0.000002 0.000000 -0.000002 0.000002 0.000001 0.000000 0.000002 0.000000 -0.000002 0.000002 -0.000000 0.000001 -0.000000 0.000001 -0.000000 -0.000000 0.000001 -0.000000 -0.000000 0.000001 -0.000000 -0.000000 0.000001 -0.000000 -0.000000 0.000001 -0.000000 -0.000000 0.000001 -0.000000 -0.000000 0.000001 -0.000000 0.000000 -0.000003 0.000000 -0.000000 -0.000000 -0.000000 
